<svg xmlns="http://www.w3.org/2000/svg" width="1600" height="940" viewBox="0 0 1600 940">
<defs><style>.txt{font-family:Arial,Helvetica,sans-serif;fill:#13243a}.head{font-weight:700;font-size:30px}.lab{font-size:18px}.small{font-size:15px;fill:#4f6478}.cell{stroke:#ffffff;stroke-width:3}.on{fill:#08306b}.score{font-weight:700;fill:#061321}</style></defs>
<rect width="1600" height="940" fill="#f3f8fc"/>
<text x="70" y="70" class="txt head">Priority target recurrence heatmap</text>
<text x="70" y="105" class="small">Dark cells indicate AnEnPi-reconstructed analog-candidate presence in the dataset. Score = 2 x datasets + evidence + EC-quality + sequence support.</text>
<g transform="translate(70,150)">
<rect x="0" y="0" width="1460" height="55" rx="14" fill="#12395a"/>
<text x="18" y="35" font-family="Arial" font-size="18" font-weight="700" fill="#fff">Target axis</text>
<text x="660" y="35" font-family="Arial" font-size="16" font-weight="700" fill="#fff">Aac-G</text><text x="760" y="35" font-family="Arial" font-size="16" font-weight="700" fill="#fff">Aac-T</text><text x="860" y="35" font-family="Arial" font-size="16" font-weight="700" fill="#fff">Ecg</text><text x="960" y="35" font-family="Arial" font-size="16" font-weight="700" fill="#fff">Ecm</text><text x="1060" y="35" font-family="Arial" font-size="16" font-weight="700" fill="#fff">Tas</text><text x="1160" y="35" font-family="Arial" font-size="16" font-weight="700" fill="#fff">Tox</text><text x="1260" y="35" font-family="Arial" font-size="16" font-weight="700" fill="#fff">Onv</text><text x="1370" y="35" font-family="Arial" font-size="16" font-weight="700" fill="#fff">Score</text>
<g transform="translate(0,80)"><rect width="1460" height="58" rx="12" fill="#fff"/><text x="18" y="36" class="txt lab">2.7.4.9 dTMP kinase</text><rect class="cell on" x="650" y="8" width="70" height="42"/><rect class="cell on" x="750" y="8" width="70" height="42"/><rect class="cell on" x="850" y="8" width="70" height="42"/><rect class="cell on" x="950" y="8" width="70" height="42"/><rect class="cell on" x="1050" y="8" width="70" height="42"/><rect class="cell on" x="1150" y="8" width="70" height="42"/><rect class="cell on" x="1250" y="8" width="70" height="42"/><text x="1380" y="36" class="txt score">21</text></g>
<g transform="translate(0,148)"><rect width="1460" height="58" rx="12" fill="#fff"/><text x="18" y="36" class="txt lab">3.5.4.4 adenosine deaminase</text><rect class="cell on" x="650" y="8" width="70" height="42"/><rect class="cell on" x="750" y="8" width="70" height="42"/><rect class="cell on" x="850" y="8" width="70" height="42"/><rect class="cell on" x="950" y="8" width="70" height="42"/><rect class="cell on" x="1050" y="8" width="70" height="42"/><rect class="cell on" x="1150" y="8" width="70" height="42"/><rect class="cell on" x="1250" y="8" width="70" height="42"/><text x="1380" y="36" class="txt score">21</text></g>
<g transform="translate(0,216)"><rect width="1460" height="58" rx="12" fill="#fff"/><text x="18" y="36" class="txt lab">4.4.1.1 cystathionine gamma-lyase</text><rect class="cell on" x="650" y="8" width="70" height="42"/><rect class="cell on" x="750" y="8" width="70" height="42"/><rect class="cell on" x="850" y="8" width="70" height="42"/><rect class="cell on" x="950" y="8" width="70" height="42"/><rect class="cell on" x="1050" y="8" width="70" height="42"/><rect class="cell on" x="1150" y="8" width="70" height="42"/><rect class="cell on" x="1250" y="8" width="70" height="42"/><text x="1380" y="36" class="txt score">21</text></g>
<g transform="translate(0,284)"><rect width="1460" height="58" rx="12" fill="#fff"/><text x="18" y="36" class="txt lab">2.7.1.25 adenylyl-sulfate kinase</text><rect class="cell on" x="650" y="8" width="70" height="42"/><rect class="cell on" x="750" y="8" width="70" height="42"/><rect class="cell on" x="850" y="8" width="70" height="42"/><rect class="cell on" x="950" y="8" width="70" height="42"/><rect class="cell on" x="1050" y="8" width="70" height="42"/><rect class="cell on" x="1150" y="8" width="70" height="42"/><rect class="cell on" x="1250" y="8" width="70" height="42"/><text x="1380" y="36" class="txt score">20</text></g>
<g transform="translate(0,352)"><rect width="1460" height="58" rx="12" fill="#fff"/><text x="18" y="36" class="txt lab">2.4.2.31 ADP-ribosyltransferase</text><rect class="cell on" x="650" y="8" width="70" height="42"/><rect class="cell on" x="750" y="8" width="70" height="42"/><rect class="cell on" x="850" y="8" width="70" height="42"/><rect class="cell on" x="950" y="8" width="70" height="42"/><rect class="cell on" x="1050" y="8" width="70" height="42"/><rect class="cell on" x="1150" y="8" width="70" height="42"/><rect class="cell on" x="1250" y="8" width="70" height="42"/><text x="1380" y="36" class="txt score">20</text></g>
<g transform="translate(0,420)"><rect width="1460" height="58" rx="12" fill="#fff"/><text x="18" y="36" class="txt lab">3.4.19.12 deubiquitinase-like signal</text><rect class="cell on" x="650" y="8" width="70" height="42"/><rect class="cell on" x="750" y="8" width="70" height="42"/><rect class="cell on" x="850" y="8" width="70" height="42"/><rect class="cell on" x="950" y="8" width="70" height="42"/><rect class="cell on" x="1050" y="8" width="70" height="42"/><rect class="cell on" x="1150" y="8" width="70" height="42"/><rect class="cell on" x="1250" y="8" width="70" height="42"/><text x="1380" y="36" class="txt score">20</text></g>
<g transform="translate(0,488)"><rect width="1460" height="58" rx="12" fill="#fff"/><text x="18" y="36" class="txt lab">3.6.1.15 nucleoside-triphosphatase</text><rect class="cell on" x="650" y="8" width="70" height="42"/><rect class="cell on" x="750" y="8" width="70" height="42"/><rect class="cell on" x="850" y="8" width="70" height="42"/><rect class="cell on" x="950" y="8" width="70" height="42"/><rect class="cell on" x="1050" y="8" width="70" height="42"/><rect class="cell on" x="1150" y="8" width="70" height="42"/><rect class="cell on" x="1250" y="8" width="70" height="42"/><text x="1380" y="36" class="txt score">20</text></g>
<g transform="translate(0,556)"><rect width="1460" height="58" rx="12" fill="#fff"/><text x="18" y="36" class="txt lab">6.1.1.9 valine--tRNA ligase</text><rect class="cell on" x="650" y="8" width="70" height="42"/><rect class="cell on" x="850" y="8" width="70" height="42"/><rect class="cell on" x="950" y="8" width="70" height="42"/><text x="1380" y="36" class="txt score">13</text></g>
</g>
<rect x="70" y="830" width="1460" height="60" rx="18" fill="#061321"/><text x="96" y="868" font-family="Arial" font-size="20" fill="#ffffff">Aac-G: A. cantonensis genome. Aac-T: A. cantonensis transcriptome. Ecg: E. granulosus. Ecm: E. multilocularis. Tas: T. solium. Tox: T. canis. Onv: O. volvulus.</text>
</svg>
