<svg xmlns="http://www.w3.org/2000/svg" width="1500" height="760" viewBox="0 0 1500 760"><defs><style>.t{font-family:Arial,Helvetica,sans-serif;fill:#13243a}.h{font-size:30px;font-weight:700}.s{font-size:17px}.on{fill:#08306b;stroke:#fff;stroke-width:3}.row{fill:#fff}.score{font-weight:700}</style></defs><rect width="1500" height="760" fill="#f3f8fc"/><text x="60" y="60" class="t h">Priority target recurrence heatmap</text><text x="60" y="95" class="t s">Dark cells indicate candidate presence. Score = 2 x datasets + evidence + EC quality + sequence support.</text><g transform="translate(60,130)"><rect width="1380" height="50" rx="12" fill="#12395a"/><text x="18" y="33" font-family="Arial" font-size="17" fill="#fff" font-weight="700">Target axis</text><text x="640" y="33" font-family="Arial" font-size="15" fill="#fff" font-weight="700">Aac-G</text><text x="735" y="33" font-family="Arial" font-size="15" fill="#fff" font-weight="700">Aac-T</text><text x="835" y="33" font-family="Arial" font-size="15" fill="#fff" font-weight="700">Ecg</text><text x="930" y="33" font-family="Arial" font-size="15" fill="#fff" font-weight="700">Ecm</text><text x="1025" y="33" font-family="Arial" font-size="15" fill="#fff" font-weight="700">Tas</text><text x="1120" y="33" font-family="Arial" font-size="15" fill="#fff" font-weight="700">Tox</text><text x="1215" y="33" font-family="Arial" font-size="15" fill="#fff" font-weight="700">Onv</text><text x="1320" y="33" font-family="Arial" font-size="15" fill="#fff" font-weight="700">Score</text><g transform="translate(0,70)"><rect class="row" width="1380" height="55" rx="11"/><text x="18" y="35" class="t s">dTMP kinase</text><rect class="on" x="630" y="8" width="62" height="39"/><rect class="on" x="725" y="8" width="62" height="39"/><rect class="on" x="820" y="8" width="62" height="39"/><rect class="on" x="915" y="8" width="62" height="39"/><rect class="on" x="1010" y="8" width="62" height="39"/><rect class="on" x="1105" y="8" width="62" height="39"/><rect class="on" x="1200" y="8" width="62" height="39"/><text x="1330" y="35" class="t s score">21</text></g><g transform="translate(0,135)"><rect class="row" width="1380" height="55" rx="11"/><text x="18" y="35" class="t s">adenosine deaminase</text><rect class="on" x="630" y="8" width="62" height="39"/><rect class="on" x="725" y="8" width="62" height="39"/><rect class="on" x="820" y="8" width="62" height="39"/><rect class="on" x="915" y="8" width="62" height="39"/><rect class="on" x="1010" y="8" width="62" height="39"/><rect class="on" x="1105" y="8" width="62" height="39"/><rect class="on" x="1200" y="8" width="62" height="39"/><text x="1330" y="35" class="t s score">21</text></g><g transform="translate(0,200)"><rect class="row" width="1380" height="55" rx="11"/><text x="18" y="35" class="t s">cystathionine gamma-lyase</text><rect class="on" x="630" y="8" width="62" height="39"/><rect class="on" x="725" y="8" width="62" height="39"/><rect class="on" x="820" y="8" width="62" height="39"/><rect class="on" x="915" y="8" width="62" height="39"/><rect class="on" x="1010" y="8" width="62" height="39"/><rect class="on" x="1105" y="8" width="62" height="39"/><rect class="on" x="1200" y="8" width="62" height="39"/><text x="1330" y="35" class="t s score">21</text></g><g transform="translate(0,265)"><rect class="row" width="1380" height="55" rx="11"/><text x="18" y="35" class="t s">adenylyl-sulfate kinase</text><rect class="on" x="630" y="8" width="62" height="39"/><rect class="on" x="725" y="8" width="62" height="39"/><rect class="on" x="820" y="8" width="62" height="39"/><rect class="on" x="915" y="8" width="62" height="39"/><rect class="on" x="1010" y="8" width="62" height="39"/><rect class="on" x="1105" y="8" width="62" height="39"/><rect class="on" x="1200" y="8" width="62" height="39"/><text x="1330" y="35" class="t s score">20</text></g><g transform="translate(0,330)"><rect class="row" width="1380" height="55" rx="11"/><text x="18" y="35" class="t s">ADP-ribosyltransferase</text><rect class="on" x="630" y="8" width="62" height="39"/><rect class="on" x="725" y="8" width="62" height="39"/><rect class="on" x="820" y="8" width="62" height="39"/><rect class="on" x="915" y="8" width="62" height="39"/><rect class="on" x="1010" y="8" width="62" height="39"/><rect class="on" x="1105" y="8" width="62" height="39"/><rect class="on" x="1200" y="8" width="62" height="39"/><text x="1330" y="35" class="t s score">20</text></g><g transform="translate(0,395)"><rect class="row" width="1380" height="55" rx="11"/><text x="18" y="35" class="t s">Valine--tRNA ligase</text><rect class="on" x="630" y="8" width="62" height="39"/><rect class="on" x="820" y="8" width="62" height="39"/><rect class="on" x="915" y="8" width="62" height="39"/><text x="1330" y="35" class="t s score">13</text></g></g><text x="60" y="710" class="t s">Aac-G: A. cantonensis genome; Aac-T: A. cantonensis transcriptome; Ecg: E. granulosus; Ecm: E. multilocularis; Tas: T. solium; Tox: T. canis; Onv: O. volvulus.</text></svg>